<svg xmlns="http://www.w3.org/2000/svg" xmlns:xlink="http://www.w3.org/1999/xlink" width="500" zoomAndPan="magnify" viewBox="0 0 375 374.999991" height="500" preserveAspectRatio="xMidYMid meet" version="1.0"><defs><clipPath id="8f79f49653"><path d="M 154 108 L 218 108 L 218 329.621094 L 154 329.621094 Z M 154 108 " clip-rule="nonzero"/></clipPath><clipPath id="56fe3589e6"><path d="M 156 45.371094 L 216 45.371094 L 216 105 L 156 105 Z M 156 45.371094 " clip-rule="nonzero"/></clipPath></defs><g clip-path="url(#8f79f49653)"><path fill="#38b6ff" d="M 217.335938 137.417969 L 217.277344 112.832031 L 209.140625 108.480469 L 164.730469 108.480469 L 154.96875 112.832031 L 154.96875 209.085938 C 154.96875 209.363281 154.980469 209.609375 155.011719 209.863281 C 154.980469 210.105469 154.96875 210.347656 154.96875 210.59375 L 154.96875 316.542969 C 154.96875 323.539062 161.238281 329.234375 168.945312 329.234375 C 176.644531 329.234375 182.914062 323.539062 182.914062 316.542969 L 182.914062 206.578125 C 185.054688 206.683594 187.277344 206.679688 189.394531 206.578125 L 189.394531 316.542969 C 189.394531 323.539062 195.664062 329.234375 203.367188 329.234375 C 211.070312 329.234375 217.335938 323.539062 217.335938 316.542969 L 217.335938 210.59375 C 217.335938 210.394531 217.320312 210.207031 217.273438 210.023438 C 217.316406 209.710938 217.335938 209.421875 217.335938 209.085938 L 217.335938 137.417969 " fill-opacity="1" fill-rule="nonzero"/></g><path fill="#38b6ff" d="M 234.5 224.855469 C 234.203125 224.855469 233.898438 224.839844 233.582031 224.816406 C 228.53125 224.308594 224.84375 219.804688 225.339844 214.75 C 233.046875 137.226562 207.4375 126.691406 207.175781 126.632812 C 202.210938 125.542969 199.074219 120.644531 200.15625 115.683594 C 201.242188 110.722656 206.144531 107.585938 211.097656 108.664062 C 215.433594 109.613281 253.164062 120.691406 243.636719 216.574219 C 243.167969 221.316406 239.171875 224.855469 234.5 224.855469 " fill-opacity="1" fill-rule="nonzero"/><path fill="#38b6ff" d="M 140.382812 224.855469 C 140.6875 224.855469 140.992188 224.839844 141.300781 224.816406 C 146.351562 224.308594 150.042969 219.804688 149.542969 214.75 C 141.839844 137.226562 167.449219 126.691406 167.714844 126.632812 C 172.671875 125.542969 175.816406 120.644531 174.730469 115.683594 C 173.648438 110.722656 168.738281 107.585938 163.78125 108.664062 C 159.449219 109.613281 121.722656 120.691406 131.242188 216.574219 C 131.714844 221.316406 135.714844 224.855469 140.382812 224.855469 " fill-opacity="1" fill-rule="nonzero"/><g clip-path="url(#56fe3589e6)"><path fill="#38b6ff" d="M 186.152344 104.496094 C 202.378906 104.496094 215.574219 91.300781 215.574219 75.078125 C 215.574219 58.859375 202.378906 45.65625 186.152344 45.65625 C 169.9375 45.65625 156.738281 58.859375 156.738281 75.078125 C 156.738281 91.300781 169.9375 104.496094 186.152344 104.496094 " fill-opacity="1" fill-rule="nonzero"/></g></svg>